<?xml version="1.0" encoding="UTF-8" standalone="no"?>
<!-- Generator: Adobe Illustrator 16.0.0, SVG Export Plug-In . SVG Version: 6.00 Build 0)  -->

<svg
   version="1.1"
   id="Capa_1"
   x="0px"
   y="0px"
   width="128"
   height="128"
   viewBox="0 0 128 128"
   xml:space="preserve"
   sodipodi:docname="logo.svg"
   inkscape:export-filename="\\wsl.localhost\Ubuntu\home\ivomarsan\webcam-viewer\icons\128.png"
   inkscape:export-xdpi="96"
   inkscape:export-ydpi="96"
   inkscape:version="1.1 (c68e22c387, 2021-05-23)"
   xmlns:inkscape="http://www.inkscape.org/namespaces/inkscape"
   xmlns:sodipodi="http://sodipodi.sourceforge.net/DTD/sodipodi-0.dtd"
   xmlns="http://www.w3.org/2000/svg"
   xmlns:svg="http://www.w3.org/2000/svg"><defs
   id="defs45" /><sodipodi:namedview
   id="namedview43"
   pagecolor="#ffffff"
   bordercolor="#666666"
   borderopacity="1.0"
   inkscape:pageshadow="2"
   inkscape:pageopacity="0.0"
   inkscape:pagecheckerboard="0"
   showgrid="false"
   inkscape:zoom="2.9438346"
   inkscape:cx="79.827854"
   inkscape:cy="58.597042"
   inkscape:window-width="1920"
   inkscape:window-height="1057"
   inkscape:window-x="1358"
   inkscape:window-y="-8"
   inkscape:window-maximized="1"
   inkscape:current-layer="Capa_1"
   fit-margin-top="0"
   fit-margin-left="0"
   fit-margin-right="0"
   fit-margin-bottom="0" />
<circle
   style="fill:#008000;stroke-width:1.13497"
   id="path902"
   cx="64"
   cy="64"
   r="64" /><g
   id="g10"
   transform="matrix(0.22490238,0,0,0.22490238,8.6820446,8.6820327)"
   style="fill:#ffffff">
	<g
   id="g8"
   style="fill:#ffffff">
		<path
   d="M 485.053,365.406 C 415.622,318.485 329.992,396.315 267.127,345.612 332.866,321.552 362.887,228.43 352.939,160.659 340.666,77.098 266.629,8.45 183.365,0.614 90.74,-8.102 13.984,77.466 3.346,163.696 c -11.113,90.02 57.973,164.488 139.226,189.432 0.292,12.461 1.062,59.468 1.965,71.909 -22.473,6.042 -39.019,21.261 -46.133,45.087 -0.785,2.656 -0.681,5.022 -0.016,7.074 -0.071,6.226 3.895,12.42 11.929,12.258 49.408,-1.011 98.771,1.163 148.162,2.468 1.488,0.041 2.788,-0.198 3.996,-0.554 6.068,-0.102 11.645,-3.996 10.821,-11.791 -3.057,-28.965 -19.342,-52.262 -46.638,-60.367 -1.46,-11.131 -2.262,-56.888 -2.567,-68.105 6.4,0.559 12.562,0.503 18.517,-0.025 27.561,30.204 61.167,38.344 101.501,32.631 44.285,-6.276 89.099,-28.294 130.448,-0.345 11.146,7.534 21.536,-10.493 10.496,-17.962 z m -250.344,86.061 c 4.735,3.915 8.49,8.846 10.153,15.066 -18.677,1.234 -37.595,-0.848 -56.292,-1.305 -7.505,-0.184 -57.267,-5.865 -60.682,-0.686 4.73,-7.165 11.428,-12.411 19.822,-15.193 29.023,-4.321 58.202,-3.198 86.999,2.118 z m 0.576,-123.74 c -10.763,1.762 -36.166,-3.631 -36.077,13.568 0.114,20.611 0.77,41.248 1.881,61.835 0.511,9.43 0.208,17.224 1.915,23.622 -11.403,-0.716 -22.823,-0.787 -34.271,-0.152 4.367,-26.897 -1.577,-71.33 -1.628,-81.603 -0.005,-1.026 -0.117,-1.98 -0.317,-2.874 -0.322,-4.53 -3.006,-8.78 -8.747,-10.268 C 84.525,312.772 26.349,254 27.271,175.109 28.154,98.947 96.24,26.416 172.61,24.902 c 70.276,-1.389 130.737,55.949 151.232,119.69 18.245,56.724 0.522,152.484 -61.073,176.361 -8.82,3.418 -18.176,5.251 -27.484,6.774 z"
   id="path2"
   style="fill:#ffffff" />
		<path
   d="M 282.6,111.395 C 246.048,58.534 170.465,53.105 116.006,80.582 c -1.076,0.378 -2.163,0.883 -3.26,1.579 -0.198,0.127 -0.366,0.267 -0.556,0.391 -5.487,2.98 -10.737,6.292 -15.678,9.942 -2.729,2.011 -4.451,4.502 -5.418,7.15 -37.184,37.382 -43.762,93.316 -16.517,142.06 34.19,61.177 114.763,74.182 171.405,38.474 57.437,-36.202 75.25,-112.93 36.618,-168.783 z M 238.853,248.84 c -40.487,36.506 -104.056,26.172 -135.222,-16.48 -29.937,-40.964 -18.745,-96.24 22.526,-123.641 38.676,-20.769 89.581,-21.95 123.266,8.886 41.388,37.88 26.691,97.638 -10.57,131.235 z"
   id="path4"
   style="fill:#ffffff" />
		<path
   d="m 243.646,141.467 c -0.457,-0.719 -0.843,-1.468 -1.335,-2.174 -22.125,-31.996 -67.88,-35.287 -100.836,-18.651 -0.65,0.229 -1.31,0.536 -1.97,0.955 -0.12,0.073 -0.224,0.162 -0.338,0.241 -3.323,1.802 -6.5,3.806 -9.491,6.015 -1.647,1.219 -2.699,2.724 -3.28,4.326 -22.506,22.625 -26.489,56.482 -9.996,85.99 20.69,37.029 69.462,44.899 103.748,23.291 31.283,-19.718 43.054,-59.268 28.084,-91.632 -0.087,-3.639 -1.981,-6.52 -4.586,-8.361 z m -39.387,-6.39 c 0.83,-0.62 1.49,-1.315 2.079,-2.039 5.713,2.346 11.096,5.621 15.889,10.009 2.019,1.848 3.735,3.798 5.314,5.799 -1.896,9.244 -5.291,19.677 -12.781,24.019 -0.868,0.503 -1.231,0.625 -3.359,1.128 0.246,-0.056 -3.509,0.03 -2.422,0.178 -4.306,-0.589 -5.091,-1.171 -8.688,-3.616 -4.062,-2.754 -7.701,-9.557 -7.998,-14.746 -0.442,-7.703 4.737,-15.383 11.966,-20.732 z m 11.567,87.409 c -24.506,22.095 -62.979,15.844 -81.844,-9.978 -18.116,-24.798 -11.352,-58.254 13.634,-74.842 10.356,-5.563 22.166,-8.792 33.88,-9.059 -5.941,7.302 -9.795,15.907 -10.029,26.068 -0.308,13.155 7.076,25.624 17.476,33.22 10.011,7.312 23.072,9.023 34.388,3.859 5.746,-2.621 10.268,-6.77 13.835,-11.726 -0.939,15.72 -9.094,31.419 -21.34,42.458 z"
   id="path6"
   style="fill:#ffffff" />
	</g>
</g>
<g
   id="g12">
</g>
<g
   id="g14">
</g>
<g
   id="g16">
</g>
<g
   id="g18">
</g>
<g
   id="g20">
</g>
<g
   id="g22">
</g>
<g
   id="g24">
</g>
<g
   id="g26">
</g>
<g
   id="g28">
</g>
<g
   id="g30">
</g>
<g
   id="g32">
</g>
<g
   id="g34">
</g>
<g
   id="g36">
</g>
<g
   id="g38">
</g>
<g
   id="g40">
</g>
</svg>
